<?xml version="1.0" encoding="utf-8"?>
<!-- Generator: Adobe Illustrator 25.0.0, SVG Export Plug-In . SVG Version: 6.00 Build 0)  -->
<svg version="1.1" id="Layer_1" xmlns="http://www.w3.org/2000/svg" xmlns:xlink="http://www.w3.org/1999/xlink" x="0px" y="0px"
	 viewBox="0 0 287.7 287.7" style="enable-background:new 0 0 287.7 287.7;" xml:space="preserve">
<style type="text/css">
	.st0{fill:#FFFFFF;}
</style>
<g>
	<g>
		<g>
			<path class="st0" d="M115.6,134.3c0,0,27.3-1.8,27.3-33.7s-21.8-47.3-50.1-47.3H41h-1.8H0v178.4h39.1H41h51.9
				c0,0,56.4,1.8,56.4-52.8C149.3,178,152,134.3,115.6,134.3z M41,84.2h45.5h6.4c0,0,12.7,0,12.7,18.2s-7.3,21.8-16.4,21.8H41
				C41,124.3,41,84.2,41,84.2z M90.1,198.9H41v-47.3h51.9c0,0,19.1,0,19.1,24.6C112,196.2,97.4,198.9,90.1,198.9z"/>
			<g>
				<path class="st0" d="M224.9,97.9c-68.3,0-68.3,68.3-68.3,68.3s-4.6,68.3,68.3,68.3c0,0,61,3.6,61-47.3H254
					c0,0,0.9,19.1-28.2,19.1c0,0-31.9,1.8-31.9-31h92.9C287.7,175.2,297.7,97.9,224.9,97.9z M253.1,151.6h-58.3
					c0,0,3.6-27.3,31.9-27.3C253.1,124.3,253.1,151.6,253.1,151.6z"/>
				<rect x="186.6" y="63.3" class="st0" width="73.7" height="21.8"/>
			</g>
		</g>
	</g>
</g>
</svg>
