<?xml version="1.0" encoding="utf-8"?>
<!-- Generator: Adobe Illustrator 25.0.0, SVG Export Plug-In . SVG Version: 6.00 Build 0)  -->
<svg version="1.1" id="Layer_1" xmlns="http://www.w3.org/2000/svg" xmlns:xlink="http://www.w3.org/1999/xlink" x="0px" y="0px"
	 viewBox="0 0 287.7 287.7" style="enable-background:new 0 0 287.7 287.7;" xml:space="preserve">
<style type="text/css">
	.st0{fill:#FFFFFF;}
</style>
<g id="XMLID_801_">
	<path id="XMLID_802_" class="st0" d="M90.2,108.4H49.5c-1.8,0-3.3,1.4-3.3,3.3v130.7c0,1.8,1.4,3.3,3.3,3.3h40.7
		c1.8,0,3.3-1.4,3.3-3.3V111.7C93.5,109.9,92,108.4,90.2,108.4z"/>
	<path id="XMLID_803_" class="st0" d="M69.9,43.4C55,43.4,43,55.5,43,70.3c0,14.8,12,26.8,26.9,26.8c14.8,0,26.8-12,26.8-26.8
		C96.7,55.5,84.6,43.4,69.9,43.4z"/>
	<path id="XMLID_804_" class="st0" d="M193.7,105.2c-16.3,0-28.4,7-35.8,15v-8.5c0-1.8-1.4-3.3-3.3-3.3h-39c-1.8,0-3.3,1.4-3.3,3.3
		v130.7c0,1.8,1.4,3.3,3.3,3.3h40.6c1.8,0,3.3-1.4,3.3-3.3v-64.7c0-21.8,6-30.3,21.1-30.3c16.5,0,17.9,13.6,17.9,31.4v63.6
		c0,1.8,1.4,3.3,3.3,3.3h40.6c1.8,0,3.3-1.4,3.3-3.3v-71.7C245.7,138.3,239.5,105.2,193.7,105.2z"/>
</g>
</svg>
