<?xml version="1.0" encoding="utf-8"?>
<!-- Generator: Adobe Illustrator 25.0.0, SVG Export Plug-In . SVG Version: 6.00 Build 0)  -->
<svg version="1.1" id="Capa_1" xmlns="http://www.w3.org/2000/svg" xmlns:xlink="http://www.w3.org/1999/xlink" x="0px" y="0px"
	 viewBox="0 0 112.2 112.2" style="enable-background:new 0 0 112.2 112.2;" xml:space="preserve">
<style type="text/css">
	.st0{fill:#FFFFFF;}
</style>
<g>
	<path class="st0" d="M56.1,5.4c-28,0-50.7,22.7-50.7,50.7c0,28,22.7,50.7,50.7,50.7c28,0,50.7-22.7,50.7-50.7
		C106.8,28.1,84.1,5.4,56.1,5.4z M42.7,81.1H30.6V44.6h12.1V81.1z M36.6,39.7L36.6,39.7c-4.1,0-6.8-2.8-6.8-6.3
		c0-3.6,2.7-6.3,6.9-6.3c4.1,0,6.7,2.7,6.8,6.3C43.5,36.9,40.9,39.7,36.6,39.7z M86.4,81.1H74.3V61.6c0-4.9-1.8-8.2-6.1-8.2
		c-3.4,0-5.3,2.3-6.2,4.4c-0.3,0.8-0.4,1.9-0.4,2.9v20.4H49.4c0,0,0.2-33,0-36.5h12.1v5.2c1.6-2.5,4.5-6,10.9-6c8,0,14,5.2,14,16.4
		V81.1z"/>
</g>
</svg>
