<?xml version="1.0" encoding="utf-8"?>
<!-- Generator: Adobe Illustrator 25.0.0, SVG Export Plug-In . SVG Version: 6.00 Build 0)  -->
<svg version="1.1" id="Capa_1" xmlns="http://www.w3.org/2000/svg" xmlns:xlink="http://www.w3.org/1999/xlink" x="0px" y="0px"
	 viewBox="0 0 294 294" style="enable-background:new 0 0 294 294;" xml:space="preserve">
<style type="text/css">
	.st0{fill:#FFFFFF;}
</style>
<path class="st0" d="M294,56.4c0-8.3-6.7-15-15-15H15c-8.3,0-15,6.7-15,15v181.3c0,8.3,6.7,15,15,15h264c8.3,0,15-6.7,15-15V56.4z
	 M264,86.9c0,4.4-1.9,8.6-5.3,11.5l-57.5,49l57.6,49c3.3,2.8,5.2,7,5.2,11.4c0,8.2-6.7,14.9-14.9,14.9H249c-3.6,0-7.2-1.3-9.9-3.7
	l-61-51.9l-21.3,18.2c-2.8,2.4-6.3,3.6-9.7,3.6s-6.9-1.2-9.7-3.6L116,167.1l-60.9,51.8c-2.8,2.4-6.4,3.7-10.2,3.7
	c-8.2,0-14.9-6.7-14.9-14.9c0-4.4,1.9-8.5,5.2-11.4l57.6-49L36.1,99.1C32.2,95.8,30,91,30,85.9c0-8,6.5-14.5,14.5-14.5
	c3.4,0,6.8,1.2,9.4,3.5l88.4,75.2c2.7,2.3,6.8,2.3,9.5,0l88.4-75.2c2.6-2.2,6-3.5,9.4-3.5c8,0,14.5,6.5,14.5,14.5L264,86.9L264,86.9
	z"/>
</svg>
